<svg xmlns="http://www.w3.org/2000/svg" width="1200" height="760" viewBox="0 0 1200 760">
<rect width="1200" height="760" fill="#F8FBFF"/>
<style>text{font-family:Arial,Helvetica,sans-serif;fill:#10253F}.title{font-size:28px;font-weight:700;letter-spacing:-.3px}.subtitle{font-size:14px;fill:#5E7085}.label{font-size:14px}.small{font-size:12px;fill:#5E7085}.value{font-size:14px;font-weight:700}.axis{stroke:#AFC0D2;stroke-width:1}.grid{stroke:#DCE6F1;stroke-width:1}.ci{stroke-width:2}</style>
<text class="title" x="56" y="52">Predicted quality and CPU throughput</text>
<text class="subtitle" x="56" y="78">UTMOS22 versus warm end-to-end speed · Ryzen 9 3900X · 12 threads · 48 matched prompts</text>
<line class="grid" x1="105.0" y1="120" x2="105.0" y2="610"/>
<text class="small" x="105.0" y="638" text-anchor="middle">0.0×</text>
<line class="grid" x1="306.0" y1="120" x2="306.0" y2="610"/>
<text class="small" x="306.0" y="638" text-anchor="middle">4.2×</text>
<line class="grid" x1="507.0" y1="120" x2="507.0" y2="610"/>
<text class="small" x="507.0" y="638" text-anchor="middle">8.3×</text>
<line class="grid" x1="708.0" y1="120" x2="708.0" y2="610"/>
<text class="small" x="708.0" y="638" text-anchor="middle">12.5×</text>
<line class="grid" x1="909.0" y1="120" x2="909.0" y2="610"/>
<text class="small" x="909.0" y="638" text-anchor="middle">16.6×</text>
<line class="grid" x1="1110.0" y1="120" x2="1110.0" y2="610"/>
<text class="small" x="1110.0" y="638" text-anchor="middle">20.8×</text>
<line class="grid" x1="105" y1="610.0" x2="1110" y2="610.0"/>
<text class="small" x="91" y="614.0" text-anchor="end">4.12</text>
<line class="grid" x1="105" y1="487.5" x2="1110" y2="487.5"/>
<text class="small" x="91" y="491.5" text-anchor="end">4.21</text>
<line class="grid" x1="105" y1="365.0" x2="1110" y2="365.0"/>
<text class="small" x="91" y="369.0" text-anchor="end">4.30</text>
<line class="grid" x1="105" y1="242.5" x2="1110" y2="242.5"/>
<text class="small" x="91" y="246.5" text-anchor="end">4.39</text>
<line class="grid" x1="105" y1="120.0" x2="1110" y2="120.0"/>
<text class="small" x="91" y="124.0" text-anchor="end">4.48</text>
<circle cx="181.1" cy="231.7" r="9" fill="#1769E0"/>
<line x1="181.1" y1="231.7" x2="188.1" y2="211.7" stroke="#5E7085" stroke-width="1"/>
<text class="label" x="193.1" y="215.7" text-anchor="start">Inflect-Micro-v2</text>
<circle cx="181.7" cy="244.1" r="9" fill="#1769E0"/>
<line x1="181.7" y1="244.1" x2="188.7" y2="270.1" stroke="#5E7085" stroke-width="1"/>
<text class="label" x="193.7" y="274.1" text-anchor="start">Inflect-Nano-v2</text>
<circle cx="484.4" cy="498.3" r="7" fill="#8B9AA9"/>
<line x1="484.4" y1="498.3" x2="491.4" y2="452.3" stroke="#5E7085" stroke-width="1"/>
<text class="label" x="496.4" y="456.3" text-anchor="start">KittenTTS Nano · 2-voice mean</text>
<circle cx="1002.3" cy="445.0" r="7" fill="#8B9AA9"/>
<line x1="1002.3" y1="445.0" x2="995.3" y2="471.0" stroke="#5E7085" stroke-width="1"/>
<text class="label" x="990.3" y="475.0" text-anchor="end">Piper Low · 2-voice mean</text>
<circle cx="226.5" cy="371.7" r="7" fill="#8B9AA9"/>
<line x1="226.5" y1="371.7" x2="219.5" y2="325.7" stroke="#5E7085" stroke-width="1"/>
<text class="label" x="214.5" y="329.7" text-anchor="end">Supertonic 3 · 8-step</text>
<text class="small" x="607.5" y="685" text-anchor="middle">Audio seconds generated per wall-clock second · higher is faster</text>
<text class="small" x="28" y="365" transform="rotate(-90 28 365)" text-anchor="middle">Predicted MOS · higher is better</text>
<text class="small" x="56" y="738">A point farther right and higher is preferable. One host and isolated process per system; UTMOS22 is not human MOS.</text>
<text class="small" x="1110" y="104" text-anchor="end">Supertonic 3-step: 2.471 UTMOS22 · below plotted range</text>
</svg>
